<?xml version="1.0" standalone="no"?>
<svg viewBox="0 0 200 200" xmlns="http://www.w3.org/2000/svg">
  <path fill="#F2F4F8" d="M34.7,-50.3C48.8,-44.8,66.9,-41.8,73.9,-32.1C80.9,-22.4,76.9,-5.9,75.3,11.4C73.8,28.8,74.6,47.1,65.9,56.9C57.1,66.8,38.8,68.1,22.7,69.3C6.5,70.4,-7.3,71.3,-17.1,65.2C-26.9,59.1,-32.5,46.1,-38.7,35.5C-44.9,24.9,-51.7,16.6,-56.8,5.9C-61.8,-4.9,-65.3,-18.1,-64.1,-32.8C-62.9,-47.6,-57.1,-63.8,-45.7,-70.5C-34.3,-77.2,-17.1,-74.5,-3.4,-69.1C10.2,-63.8,20.5,-55.8,34.7,-50.3Z" transform="translate(100 100)" />
</svg>
