<?xml version="1.0" standalone="no"?>
<svg viewBox="0 0 200 200" xmlns="http://www.w3.org/2000/svg">
  <path fill="#F2F4F8" d="M27.7,-35.9C39,-35.9,53.3,-33.4,64.8,-24.7C76.3,-16.1,85,-1.3,78.8,8.3C72.7,17.9,51.9,22.4,40.7,35.2C29.5,48,28,69.1,19.5,75.8C11.1,82.5,-4.3,74.7,-16.2,66.2C-28.2,57.7,-36.7,48.5,-48.7,39.5C-60.6,30.5,-75.9,21.8,-77.4,11.2C-78.8,0.5,-66.4,-12.1,-55.3,-20.6C-44.2,-29.2,-34.3,-33.7,-25.3,-34.7C-16.3,-35.8,-8.2,-33.5,0,-33.6C8.2,-33.6,16.4,-36,27.7,-35.9Z" transform="translate(100 100)" />
</svg>
